<svg width="24" height="33" viewBox="0 0 24 33" fill="none" xmlns="http://www.w3.org/2000/svg">
<path d="M13.5 2C13.5 1.17157 12.8284 0.5 12 0.5C11.1716 0.5 10.5 1.17157 10.5 2L13.5 2ZM10.9393 32.3349C11.5251 32.9207 12.4749 32.9207 13.0607 32.3349L22.6066 22.7889C23.1924 22.2032 23.1924 21.2534 22.6066 20.6676C22.0208 20.0818 21.0711 20.0818 20.4853 20.6676L12 29.1529L3.51472 20.6676C2.92893 20.0818 1.97918 20.0818 1.3934 20.6676C0.807611 21.2534 0.807611 22.2032 1.3934 22.7889L10.9393 32.3349ZM10.5 2L10.5 31.2742L13.5 31.2742L13.5 2L10.5 2Z" fill="#80D901"/>
</svg>
