<svg xmlns="http://www.w3.org/2000/svg" viewBox="0 0 946.83 244.15"><defs><style>.cls-1{fill:none;stroke:#80d901;stroke-miterlimit:10;stroke-width:8px;}.cls-2{font-size:70.55px;fill:#f6f6f6;font-family:Primal;}.cls-3{letter-spacing:-0.24em;}.cls-4{letter-spacing:0em;}</style></defs><g id="Слой_2" data-name="Слой 2"><g id="Слой_1-2" data-name="Слой 1"><rect class="cls-1" x="72.6" y="74.44" width="98.75" height="98.75"/><circle class="cls-1" cx="227.94" cy="145.95" r="12.57"/><circle class="cls-1" cx="205.35" cy="209.02" r="12.57"/><circle class="cls-1" cx="209.09" cy="39.27" r="12.57"/><circle class="cls-1" cx="144.64" cy="16.57" r="12.57"/><circle class="cls-1" cx="99.63" cy="227.58" r="12.57"/><circle class="cls-1" cx="36.3" cy="205.24" r="12.57"/><circle class="cls-1" cx="16.57" cy="99.85" r="12.57"/><circle class="cls-1" cx="39.24" cy="36.15" r="12.57"/><polyline class="cls-1" points="51.81 34.99 99.63 34.99 99.63 73.25"/><line class="cls-1" x1="144.64" y1="29.14" x2="144.64" y2="73.25"/><polyline class="cls-1" points="171.36 99.85 209.79 99.85 209.79 51.84"/><line class="cls-1" x1="172.48" y1="145.95" x2="215.37" y2="145.95"/><line class="cls-1" x1="29.14" y1="99.85" x2="72.6" y2="99.85"/><line class="cls-1" x1="99.63" y1="173.2" x2="99.63" y2="215.01"/><polyline class="cls-1" points="72.6 144.79 36.3 144.79 36.3 192.67"/><polyline class="cls-1" points="145.62 173.19 145.62 208.25 192.78 208.25"/><text class="cls-2" transform="translate(278.38 144.3)">DIGI<tspan class="cls-3" x="155.64" y="0">T</tspan><tspan class="cls-4" x="195.7" y="0">ALSPHERE</tspan></text><line class="cls-1" x1="279.8" y1="162.09" x2="935.34" y2="162.09"/></g></g></svg>