<svg width="33" height="24" viewBox="0 0 33 24" fill="none" xmlns="http://www.w3.org/2000/svg">
<path d="M2 10.5C1.17157 10.5 0.5 11.1716 0.5 12C0.5 12.8284 1.17157 13.5 2 13.5V10.5ZM32.3349 13.0607C32.9207 12.4749 32.9207 11.5251 32.3349 10.9393L22.7889 1.3934C22.2032 0.807611 21.2534 0.807611 20.6676 1.3934C20.0818 1.97919 20.0818 2.92893 20.6676 3.51472L29.1529 12L20.6676 20.4853C20.0818 21.0711 20.0818 22.0208 20.6676 22.6066C21.2534 23.1924 22.2032 23.1924 22.7889 22.6066L32.3349 13.0607ZM2 13.5L31.2742 13.5V10.5L2 10.5V13.5Z" fill="#80D901"/>
</svg>
