<svg width="120" height="120" viewBox="0 0 120 120" fill="none" xmlns="http://www.w3.org/2000/svg">
<g clip-path="url(#clip0_87_11)">
<path d="M60.459 49.8559C48.0367 48.9099 37.0637 42.7607 29.6641 33.6794L28.7477 32.5547L28.0227 33.8114C26.6049 36.2689 25.7556 39.196 25.7556 42.3111C25.7556 46.8868 27.5991 51.0559 30.5635 54.1019C29.3641 53.7786 28.2115 53.2995 27.1429 52.7207L25.6667 51.9211V53.6V53.6V53.6001V53.6001V53.6002V53.6002V53.6003V53.6003V53.6003V53.6004V53.6004V53.6004V53.6005V53.6005V53.6006V53.6006V53.6007V53.6007V53.6008V53.6008V53.6009V53.601V53.601V53.6011V53.6011V53.6012V53.6013V53.6014V53.6014V53.6015V53.6016V53.6017V53.6017V53.6018V53.6019V53.602V53.6021V53.6022V53.6023V53.6024V53.6025V53.6026V53.6027V53.6028V53.6029V53.603V53.6031V53.6032V53.6033V53.6034V53.6035V53.6036V53.6038V53.6039V53.604V53.6041V53.6042V53.6044V53.6045V53.6046V53.6048V53.6049V53.605V53.6052V53.6053V53.6054V53.6056V53.6057V53.6059V53.606V53.6062V53.6063V53.6065V53.6066V53.6068V53.6069V53.6071V53.6073V53.6074V53.6076V53.6078V53.6079V53.6081V53.6083V53.6084V53.6086V53.6088V53.609V53.6091V53.6093V53.6095V53.6097V53.6099V53.6101V53.6103V53.6104V53.6106V53.6108V53.611V53.6112V53.6114V53.6116V53.6118V53.612V53.6122V53.6124V53.6127V53.6129V53.6131V53.6133V53.6135V53.6137V53.6139V53.6142V53.6144V53.6146V53.6148V53.615V53.6153V53.6155V53.6157V53.616V53.6162V53.6164V53.6167V53.6169V53.6171V53.6174V53.6176V53.6179V53.6181V53.6184V53.6186V53.6189V53.6191V53.6194V53.6196V53.6199V53.6201V53.6204V53.6207V53.6209V53.6212V53.6214V53.6217V53.622V53.6222V53.6225V53.6228V53.6231V53.6233V53.6236V53.6239V53.6242V53.6244V53.6247V53.625V53.6253V53.6256V53.6259V53.6261V53.6264V53.6267V53.627V53.6273V53.6276V53.6279V53.6282V53.6285V53.6288V53.6291V53.6294V53.6297V53.63V53.6303V53.6306V53.6309V53.6312V53.6316V53.6319V53.6322V53.6325V53.6328V53.6331V53.6334V53.6338V53.6341V53.6344V53.6347V53.6351V53.6354V53.6357V53.636V53.6364V53.6367V53.637V53.6374V53.6377V53.6381V53.6384V53.6387V53.6391V53.6394V53.6398V53.6401V53.6404V53.6408V53.6411V53.6415V53.6418V53.6422V53.6425V53.6429V53.6432V53.6436V53.644V53.6443V53.6447V53.645V53.6454V53.6458V53.6461V53.6465V53.6468V53.6472V53.6476V53.6479V53.6483V53.6487V53.6491V53.6494V53.6498V53.6502V53.6506V53.6509V53.6513V53.6517V53.6521V53.6525V53.6528V53.6532V53.6536V53.654V53.6544V53.6548V53.6552V53.6556V53.6559V53.6563V53.6567V53.6571V53.6575V53.6579V53.6583V53.6587V53.6591V53.6595V53.6599V53.6603V53.6607V53.6611V53.6615V53.6619V53.6623V53.6627V53.6632V53.6636V53.664V53.6644V53.6648V53.6652V53.6656V53.666V53.6665V53.6669V53.6673V53.6677V53.6681V53.6686V53.669V53.6694V53.6698V53.6702V53.6707V53.6711V53.6715V53.672V53.6724V53.6728V53.6732V53.6737V53.6741V53.6745V53.675V53.6754V53.6758V53.6763V53.6767V53.6772V53.6776V53.678V53.6785V53.6789V53.6794V53.6798V53.6802V53.6807V53.6811V53.6816V53.682V53.6825V53.6829V53.6834V53.6838V53.6843V53.6847V53.6852V53.6856V53.6861V53.6865V53.687V53.6874V53.6879V53.6883V53.6888V53.6893V53.6897V53.6902V53.6906V53.6911V53.6916V53.692V53.6925V53.693V53.6934V53.6939V53.6943V53.6948V53.6953V53.6958V53.6962V53.6967V53.6972V53.6976V53.6981V53.6986V53.699V53.6995V53.7V53.7005V53.7009V53.7014V53.7019V53.7024V53.7028V53.7033V53.7038V53.7043V53.7048V53.7052V53.7057V53.7062V53.7067V53.7072V53.7076V53.7081V53.7086V53.7091V53.7096V53.7101V53.7106V53.711V53.7115V53.712V53.7125V53.713V53.7135V53.714V53.7145V53.7149V53.7154V53.7159V53.7164V53.7169V53.7174V53.7179V53.7184V53.7189V53.7194V53.7199V53.7204V53.7209V53.7214V53.7219V53.7224V53.7229V53.7234V53.7239V53.7244V53.7249V53.7254V53.7259V53.7264V53.7269V53.7274V53.7279V53.7284V53.7289V53.7294V53.7299V53.7304V53.7309V53.7314V53.7319V53.7324V53.7329V53.7334V53.7339V53.7344V53.7349V53.7354V53.7359V53.7365V53.737V53.7375V53.738V53.7385V53.739V53.7395V53.74V53.7405V53.741V53.7415V53.7421V53.7426V53.7431V53.7436V53.7441V53.7446V53.7451V53.7456V53.7462V53.7467V53.7472V53.7477V53.7482V53.7487V53.7492V53.7498V53.7503V53.7508V53.7513V53.7518V53.7523V53.7529V53.7534V53.7539V53.7544V53.7549V53.7554V53.756V53.7565V53.757V53.7575V53.758V53.7585V53.7591V53.7596V53.7601V53.7606V53.7611V53.7617V53.7622V53.7627V53.7632V53.7637V53.7642V53.7648V53.7653V53.7658V53.7663V53.7668V53.7674V53.7679V53.7684V53.7689V53.7694V53.77V53.7705V53.771V53.7715V53.772V53.7726V53.7731V53.7736V53.7741V53.7747V53.7752V53.7757V53.7762V53.7767V53.7773V53.7778C25.6667 60.4064 29.4774 66.1769 35.0228 68.9536C34.1178 68.94 33.2813 68.857 32.4456 68.705L30.8235 68.4101L31.3115 69.9849C33.1297 75.8529 38.1887 80.3421 44.351 81.4489C39.418 84.6666 33.5802 86.5556 27.2889 86.5556C25.9428 86.5556 24.7702 86.5538 23.6081 86.3878L22.9291 88.221C30.1908 92.8503 38.7313 95.5778 47.9111 95.5778C77.9118 95.5778 94.2444 70.7408 94.2444 49.2444C94.2444 48.8555 94.2204 48.4941 94.1986 48.1679L94.1978 48.1557C94.187 47.9934 94.1768 47.8395 94.1691 47.6882C97.1904 45.3768 99.7987 42.6368 101.906 39.3886L103.719 36.5923L100.666 37.9283C99.0964 38.6149 97.4453 39.1891 95.745 39.6198C97.6292 37.7496 99.0821 35.4346 99.8886 32.829L100.662 30.3298L98.4188 31.6758C95.5538 33.3949 92.4602 34.6448 89.1352 35.3553C86.0571 32.2914 81.8675 30.3778 77.1556 30.3778C67.8033 30.3778 60.2444 37.9366 60.2444 47.2889C60.2444 48.1598 60.3253 49.0242 60.459 49.8559ZM1 60C1 27.3967 27.3967 1 60 1C92.6033 1 119 27.3967 119 60C119 92.6033 92.6033 119 60 119C27.3967 119 1 92.6033 1 60Z" stroke="#80D901" stroke-width="2"/>
</g>
<defs>
<clipPath id="clip0_87_11">
<rect width="120" height="120" fill="white"/>
</clipPath>
</defs>
</svg>
