<svg width="120" height="120" viewBox="0 0 120 120" fill="none" xmlns="http://www.w3.org/2000/svg">
<g clip-path="url(#clip0_87_5)">
<path d="M50.4 69.2444C49.6929 68.5373 49.6928 68.5375 49.6926 68.5377L49.6922 68.538L49.6915 68.5387L49.6901 68.5402L49.6871 68.5432L49.6808 68.5497L49.6665 68.5646C49.6563 68.5755 49.6448 68.5882 49.6322 68.6026C49.6069 68.6314 49.5771 68.6676 49.5445 68.7111C49.4793 68.798 49.402 68.9155 49.3278 69.0639L49.2439 69.2316L49.2265 69.4183L47.8941 83.7198L47.8933 83.7271C47.8919 83.7402 47.8901 83.7574 47.8882 83.7783C47.8843 83.82 47.8798 83.877 47.876 83.946C47.8685 84.0825 47.8636 84.2729 47.875 84.4877C47.8949 84.8626 47.9719 85.5328 48.3686 86.0582C48.5907 86.3523 48.9182 86.6064 49.3594 86.7099C49.7839 86.8094 50.2141 86.7462 50.6176 86.5997C51.3936 86.318 52.3046 85.643 53.4182 84.5293L53.4233 84.5242L53.4284 84.519C56.0662 81.8036 58.7078 79.4959 60.3197 78.145C65.1078 81.4885 70.0457 85.0405 72.2273 86.8835C72.8975 87.4982 73.551 87.8621 74.1857 88.064C74.8193 88.2656 75.3837 88.2889 75.8222 88.2889H75.8422L75.8622 88.2881C77.3829 88.2273 78.3478 87.3591 78.8935 86.5895C79.1649 86.2068 79.346 85.8329 79.4596 85.5566C79.517 85.4171 79.5585 85.2989 79.5868 85.212C79.6009 85.1684 79.6117 85.1325 79.6196 85.1053L79.6293 85.0712L79.6325 85.0593L79.6337 85.0547L79.6342 85.0527L79.6344 85.0518C79.6346 85.0514 79.6347 85.051 78.6759 84.8024L79.6347 85.051L79.6372 85.0411L78.6667 84.8C79.6372 85.0411 79.6372 85.0409 79.6373 85.0406L79.6376 85.0391L79.6391 85.0335L79.6446 85.011L79.6666 84.9225L79.7523 84.5768C79.7855 84.4424 79.8257 84.2801 79.8723 84.0915C79.9308 83.8548 79.9995 83.5766 80.0775 83.2603C80.3579 82.1236 80.7587 80.4937 81.2409 78.5207C82.2051 74.5749 83.4946 69.2558 84.7953 63.7638C86.0958 58.2728 87.4085 52.6048 88.4188 47.9627C89.4197 43.3635 90.1475 39.669 90.2424 38.1977L90.2444 38.1656V38.1333C90.2444 37.9784 90.2523 37.8617 90.2618 37.7223C90.2665 37.6519 90.2717 37.5757 90.2764 37.4859C90.2879 37.2667 90.2923 37.0074 90.2444 36.7112C90.2443 36.5119 90.243 36.2796 90.2321 36.0612C90.2211 35.8422 90.1973 35.5327 90.112 35.2632C89.9938 34.8567 89.8166 34.4912 89.5182 34.1929C89.2251 33.8998 88.8902 33.7501 88.6381 33.6493C87.9123 33.359 87.0433 33.4567 86.5176 33.5481C86.224 33.5992 85.9651 33.6624 85.7799 33.7126C85.6867 33.7379 85.6106 33.7603 85.5562 33.7769C85.529 33.7852 85.5071 33.7921 85.4912 33.7972L85.4717 33.8035L85.4655 33.8056L85.4632 33.8063L85.4623 33.8066L85.4619 33.8068C85.4617 33.8068 85.4616 33.8069 85.7778 34.7556M50.4 69.2444C49.7352 68.4975 49.7352 68.4974 49.7354 68.4972L49.7363 68.4965L49.7398 68.4934L49.7537 68.481L49.8089 68.4318L50.0249 68.2392C50.2142 68.0703 50.492 67.8221 50.846 67.5053C51.5539 66.8718 52.5662 65.9639 53.7833 64.8669C56.2176 62.6727 59.4699 59.7228 62.7437 56.6988C66.019 53.6732 69.3092 50.5795 71.822 48.0957C72.2757 47.6473 72.7028 47.22 73.0989 46.8176C72.5653 47.1426 71.9888 47.4953 71.3761 47.8716C68.299 49.7612 64.3183 52.2373 60.2858 54.759C52.2176 59.8044 43.9582 65.0221 42.322 66.0834L42.275 66.1139L42.225 66.1389C41.988 66.2574 41.748 66.2748 41.6471 66.2804C41.5135 66.2878 41.3838 66.2823 41.2843 66.2752C41.1811 66.2679 41.0882 66.2571 41.0223 66.2484C40.9888 66.244 40.9609 66.2399 40.9405 66.2369L40.9153 66.233L40.9072 66.2317L40.9043 66.2312L40.9032 66.231L40.9027 66.2309L40.9025 66.2309C40.9024 66.2309 40.9023 66.2308 41.0667 65.2444L40.9023 66.2308L40.8285 66.2186L40.7575 66.1954L26.2686 61.4843L26.2285 61.4713L26.1897 61.455L26.5778 60.5333C26.1897 61.455 26.1893 61.4548 26.1889 61.4546L26.188 61.4542L26.1861 61.4534L26.1818 61.4516L26.1713 61.447L26.143 61.4343C26.1209 61.4242 26.0926 61.4109 26.059 61.3941C25.9922 61.3607 25.9031 61.3131 25.8008 61.2505C25.5997 61.1276 25.328 60.9353 25.0718 60.6631C24.5379 60.0959 24.0704 59.1582 24.4626 57.9394C24.6669 57.1885 25.2574 56.7472 25.9409 56.3188C26.227 56.1248 26.7025 55.8877 27.2641 55.6293C27.8669 55.352 28.6464 55.0159 29.5715 54.6316C31.423 53.8624 33.8856 52.8883 36.7426 51.7852C42.458 49.5783 49.7746 46.8457 56.9871 44.1841C64.2005 41.5221 71.3134 38.9298 76.6228 37.003C79.2775 36.0396 81.4815 35.2426 83.0218 34.6864C83.792 34.4082 84.3963 34.1903 84.8081 34.0419L85.278 33.8726L85.3985 33.8293L85.429 33.8183L85.4367 33.8155L85.4386 33.8148C85.439 33.8147 85.4393 33.8146 85.7778 34.7556M50.4 69.2444L49.6929 68.5373L49.7135 68.5168L49.7352 68.4975L50.4 69.2444ZM85.7778 34.7556L85.4393 33.8146L85.4504 33.8106L85.4616 33.8069L85.7778 34.7556ZM1 60C1 27.3967 27.3967 1 60 1C92.6033 1 119 27.3967 119 60C119 92.6033 92.6033 119 60 119C27.3967 119 1 92.6033 1 60Z" stroke="#80D901" stroke-width="2"/>
</g>
<defs>
<clipPath id="clip0_87_5">
<rect width="120" height="120" fill="white"/>
</clipPath>
</defs>
</svg>
