<svg width="46" height="46" viewBox="0 0 46 46" fill="none" xmlns="http://www.w3.org/2000/svg">
<g clip-path="url(#clip0_4_220)">
<path d="M23 0C10.2904 0 0 10.2904 0 23C0 35.7096 10.2904 46 23 46C35.7096 46 46 35.7096 46 23C46 10.2904 35.7096 0 23 0ZM34.2104 14.6178C34.0741 16.7304 30.1556 32.5067 30.1556 32.5067C30.1556 32.5067 29.917 33.4267 29.0652 33.4607C28.7585 33.4607 28.3837 33.4267 27.9407 33.0178C27.0548 32.2682 25.0104 30.803 23.1022 29.4741C22.523 29.9511 21.3644 30.9393 20.2059 32.1319C18.5363 33.8015 18.7407 32.1319 18.7407 32.1319L19.2519 26.6459C19.2859 26.5778 19.32 26.5437 19.32 26.5437C19.32 26.5437 29.2356 17.7185 29.5081 16.7985C29.5422 16.7304 29.44 16.6963 29.3378 16.7304C28.6904 17.003 17.2756 24.1926 16.0148 25.0104C15.9467 25.0444 15.7422 25.0104 15.7422 25.0104L10.1881 23.2044C10.1881 23.2044 9.54074 22.9319 9.74518 22.3185C9.77926 22.1822 9.88148 22.08 10.1541 21.9096C11.3807 21.0578 32.8815 13.323 32.8815 13.323C32.8815 13.323 33.4948 13.1185 33.8356 13.2548C34.0059 13.323 34.1082 13.3911 34.1763 13.6296C34.2104 13.7319 34.2104 13.9363 34.2104 14.1067C34.2444 14.277 34.2104 14.4133 34.2104 14.6178Z" fill="#F2F2F2" fill-opacity="0.4"/>
</g>
<defs>
<clipPath id="clip0_4_220">
<rect width="46" height="46" fill="white"/>
</clipPath>
</defs>
</svg>
