<svg width="46" height="46" viewBox="0 0 46 46" fill="none" xmlns="http://www.w3.org/2000/svg">
<g clip-path="url(#clip0_4_223)">
<path d="M23 0C10.2904 0 0 10.2904 0 23C0 35.7096 10.2904 46 23 46C35.7096 46 46 35.7096 46 23C46 10.2904 35.7096 0 23 0ZM35.6415 20.3763C34.7896 20.3763 33.9378 20.2741 33.12 20.0696C31.6889 19.7289 30.36 19.1496 29.1333 18.3659C29.0652 18.3319 28.997 18.2296 28.9289 18.2637C28.8267 18.2978 28.8948 18.4 28.8948 18.5022C28.8948 21.8074 28.8948 25.1126 28.8948 28.3837C28.8948 30.7007 28.1452 32.7452 26.6459 34.517C25.0444 36.3911 23 37.4815 20.5467 37.7541C18.6726 37.9926 16.8667 37.6519 15.163 36.8C14.8904 36.6637 14.6178 36.4933 14.3793 36.323C14.3111 36.2548 14.2089 36.1867 14.1407 36.1185C13.9704 36.0504 13.8 35.9141 13.6637 35.7778C12.1644 34.5852 11.0741 33.0519 10.4948 31.2119C10.2904 30.5644 10.1541 29.917 10.0859 29.2356C10.0519 28.7585 10.0519 28.2474 10.0519 27.7704C10.12 26.6459 10.3926 25.5896 10.8356 24.5674C11.3126 23.5111 11.96 22.557 12.8119 21.7393C13.8 20.7852 14.9244 20.0696 16.2193 19.5926C17.037 19.2859 17.8548 19.1156 18.7067 19.0474C19.32 19.0133 19.9333 19.0133 20.5467 19.0815C20.6148 19.0815 20.683 19.1156 20.683 19.2178C20.683 19.5585 20.683 19.8993 20.683 20.24C20.683 20.24 20.717 22.8296 20.717 24.0222C20.717 24.0563 20.717 24.0904 20.717 24.1585C20.717 24.2948 20.6489 24.3289 20.5467 24.2948C20.2059 24.1926 19.8993 24.1585 19.5585 24.1585C19.0474 24.1244 18.5363 24.1926 18.0252 24.397C16.3896 25.0104 15.4015 26.1689 15.197 27.9067C14.9926 29.6104 15.6741 30.9733 17.0711 31.9615C17.1733 32.0296 17.3096 32.1319 17.4119 32.2C17.4459 32.2341 17.48 32.2341 17.48 32.2681C17.8207 32.4044 18.1274 32.5407 18.5022 32.6089C19.6267 32.8133 20.6489 32.643 21.603 32.0637C22.7274 31.3822 23.3748 30.36 23.6133 29.0993C23.6474 28.8607 23.6474 28.6222 23.6474 28.3496C23.6474 21.7393 23.6474 15.0948 23.6474 8.48444C23.6474 8.17778 23.6133 8.21185 23.92 8.21185C25.4533 8.21185 26.9867 8.21185 28.4859 8.21185C28.52 8.21185 28.5541 8.21185 28.5881 8.21185C28.7585 8.21185 28.7585 8.21185 28.7585 8.38222C28.7585 8.72296 28.8948 9.57481 28.9289 9.64296C29.6444 12.9481 33.5289 14.9926 34.7556 15.163C35.0963 15.197 35.437 15.2652 35.7437 15.2652C35.88 15.2652 35.88 15.2652 35.88 15.4015C35.88 15.7081 35.9481 18.9111 35.9481 20.1037C35.9481 20.3422 35.9141 20.3763 35.6415 20.3763Z" fill="#F2F2F2" fill-opacity="0.4"/>
</g>
<defs>
<clipPath id="clip0_4_223">
<rect width="46" height="46" fill="white"/>
</clipPath>
</defs>
</svg>
