<svg width="46" height="46" viewBox="0 0 46 46" fill="none" xmlns="http://www.w3.org/2000/svg">
<g clip-path="url(#clip0_4_226)">
<path fill-rule="evenodd" clip-rule="evenodd" d="M23 0C10.2904 0 0 10.2904 0 23C0 35.7096 10.2904 46 23 46C35.7096 46 46 35.7096 46 23C46 10.2904 35.7096 0 23 0ZM35.7096 18.0933C35.7096 18.3659 35.7437 18.6044 35.7437 18.877C35.7437 26.9526 29.6104 36.2548 18.3659 36.2548C14.9244 36.2548 11.7215 35.2326 8.99556 33.4948C9.47259 33.563 9.94963 33.563 10.4607 33.563C13.323 33.563 15.9467 32.5748 18.0593 30.9393C15.4015 30.9052 13.1185 29.1333 12.3689 26.7141C12.7437 26.7822 13.1185 26.8163 13.5274 26.8163C14.0726 26.8163 14.6178 26.7481 15.1289 26.6119C12.3348 26.0667 10.2222 23.5793 10.2222 20.6148C10.2222 20.5807 10.2222 20.5467 10.2222 20.5467C11.04 20.9896 11.9941 21.2963 12.9822 21.2963C11.3467 20.2059 10.2563 18.3319 10.2563 16.2193C10.2563 15.0948 10.563 14.0385 11.0741 13.1526C14.0726 16.8326 18.5704 19.2859 23.6474 19.5244C23.5452 19.0815 23.477 18.6044 23.477 18.1274C23.477 14.7541 26.203 12.0281 29.5763 12.0281C31.3481 12.0281 32.9156 12.7778 34.04 13.9704C35.437 13.6978 36.7319 13.1867 37.9244 12.4711C37.4815 13.9022 36.4933 15.0948 35.2326 15.8444C36.4593 15.7081 37.6519 15.3674 38.7422 14.8904C37.9244 16.1511 36.9022 17.2074 35.7096 18.0933Z" fill="#F2F2F2" fill-opacity="0.4"/>
</g>
<defs>
<clipPath id="clip0_4_226">
<rect width="46" height="46" fill="white"/>
</clipPath>
</defs>
</svg>
